<?xml version="1.0" standalone="no"?>
<!DOCTYPE svg PUBLIC "-//W3C//DTD SVG 20010904//EN"
 "http://www.w3.org/TR/2001/REC-SVG-20010904/DTD/svg10.dtd">
<svg version="1.0" xmlns="http://www.w3.org/2000/svg"
 width="500.000000pt" height="500.000000pt" viewBox="0 0 500.000000 500.000000"
 preserveAspectRatio="xMidYMid meet">

<g transform="translate(0.000000,500.000000) scale(0.100000,-0.100000)"
fill="#000000" stroke="none">
<path d="M1535 3990 l-210 -69 -26 31 -27 32 -46 -29 c-133 -86 -448 -309
-453 -322 -3 -7 16 -41 42 -74 l48 -61 -26 -61 c-116 -276 -177 -429 -177
-441 0 -20 16 -29 110 -64 554 -203 663 -242 679 -242 13 0 25 19 45 70 15 39
30 70 33 70 3 0 47 -22 98 -50 51 -27 95 -50 99 -50 3 0 6 7 6 15 0 8 -33 32
-77 54 -126 64 -120 50 -72 168 22 56 48 104 56 108 9 3 17 4 18 3 1 -2 30
-45 65 -95 35 -51 66 -93 70 -93 21 0 12 22 -46 105 -61 89 -74 115 -56 115 7
0 55 -64 94 -124 5 -7 10 -8 18 0 7 7 -4 30 -35 74 -25 35 -45 67 -45 70 0 3
56 23 125 44 84 26 126 44 130 56 3 9 -28 151 -69 316 -41 164 -85 342 -97
394 -22 96 -32 120 -53 120 -6 0 -105 -32 -221 -70z m324 -350 c49 -201 91
-374 93 -384 2 -16 -13 -24 -94 -52 -54 -18 -98 -29 -98 -24 0 5 -29 57 -65
115 -36 57 -65 107 -65 109 0 2 14 9 30 15 33 11 37 26 15 57 -16 23 -11 34
15 34 9 0 25 9 35 20 16 18 17 23 5 46 -12 22 -113 94 -132 94 -4 0 -20 -25
-36 -56 l-28 -56 -99 164 c-54 89 -100 166 -102 170 -2 4 92 38 209 76 184 59
214 66 221 53 4 -9 47 -180 96 -381z m-434 63 c352 -580 321 -524 300 -539
-10 -8 -21 -14 -24 -14 -3 0 -23 27 -45 60 -21 33 -42 57 -47 54 -5 -3 9 -32
32 -66 31 -46 38 -63 29 -71 -9 -9 -16 -5 -32 16 -28 38 -44 34 -19 -6 l20
-32 -136 -94 c-74 -51 -141 -94 -148 -95 -13 -1 -555 694 -555 710 1 10 450
323 465 323 6 0 78 -111 160 -246z m-297 -548 c-2 -2 -20 -10 -41 -18 l-37
-16 17 -43 c45 -113 77 -136 124 -88 l29 28 55 -54 c30 -30 55 -59 55 -64 0
-23 37 -6 140 66 61 41 110 72 110 67 0 -8 -59 -154 -65 -161 -2 -2 -17 4 -35
13 -17 9 -37 14 -43 12 -7 -2 5 -12 26 -22 20 -11 37 -24 37 -31 0 -13 -40
-115 -49 -126 -5 -6 -756 263 -768 275 -3 3 35 98 183 456 l14 33 126 -162
c69 -89 124 -163 122 -165z m492 298 c-1 -27 -1 -27 -15 -9 -19 25 -19 36 0
36 10 0 15 -10 15 -27z"/>
<path d="M1697 3993 c-23 -23 8 -93 41 -93 19 0 14 65 -6 83 -20 19 -26 20
-35 10z"/>
<path d="M1198 3835 l-3 -45 43 -14 c47 -17 47 -17 55 46 5 36 4 38 -31 48
-56 15 -60 13 -64 -35z"/>
<path d="M1205 3425 c-4 -46 -4 -88 -1 -93 9 -14 157 -55 166 -46 5 5 11 48
15 95 l7 85 -83 22 c-46 12 -87 22 -90 22 -4 0 -10 -38 -14 -85z"/>
<path d="M1317 3018 c-6 -39 -2 -44 39 -52 30 -7 32 -5 37 26 6 39 1 46 -40
54 -28 6 -31 4 -36 -28z"/>
<path d="M1346 2821 c-8 -12 32 -61 50 -61 8 0 14 4 14 10 0 5 7 7 15 4 16 -7
18 -1 9 34 -5 18 -13 22 -45 22 -21 0 -40 -4 -43 -9z"/>
<path d="M2952 3969 c-67 -26 -168 -109 -186 -154 -8 -17 -75 -85 -154 -155
-129 -115 -160 -150 -132 -150 6 0 65 50 132 110 67 61 123 108 125 106 3 -2
-5 -35 -16 -73 l-21 -68 -155 -139 c-139 -124 -168 -157 -141 -158 4 0 70 57
146 126 l139 126 -15 -48 c-8 -26 -22 -75 -32 -109 -16 -61 -16 -63 4 -83 11
-11 71 -35 139 -55 65 -19 120 -37 122 -39 2 -2 -44 -31 -103 -64 l-107 -60
-31 19 c-29 18 -55 19 -386 19 -325 0 -358 -2 -389 -18 -58 -31 -71 -69 -71
-210 0 -116 -1 -123 -19 -117 -21 6 -42 -10 -99 -80 -27 -34 -64 -64 -113 -90
-93 -51 -123 -82 -149 -153 -12 -31 -44 -96 -71 -143 -27 -48 -49 -92 -49 -99
0 -9 -16 -11 -67 -5 -72 7 -82 15 -83 55 -1 14 -10 68 -20 120 -11 52 -22 109
-24 125 -10 81 -40 211 -50 223 -17 17 -235 -23 -243 -45 -3 -9 3 -65 14 -127
12 -61 20 -112 18 -114 -3 -4 -205 -43 -245 -48 -81 -9 -275 -52 -272 -60 2
-5 12 -9 23 -8 12 0 21 -7 24 -20 16 -69 35 -170 35 -186 0 -11 -8 -20 -20
-22 -29 -4 -24 -23 4 -21 23 1 25 -4 40 -95 22 -124 29 -142 60 -142 32 0 186
29 211 39 11 5 67 17 125 26 58 9 110 20 115 23 6 4 19 8 30 9 104 14 208 39
215 53 4 8 3 39 -2 68 -6 29 -8 55 -5 58 3 3 25 3 49 -1 l43 -7 0 -109 0 -108
-102 -47 c-57 -26 -103 -51 -103 -55 0 -20 23 -15 111 26 91 42 94 43 97 22 2
-12 0 -23 -5 -24 -51 -18 -237 -111 -241 -121 -7 -21 19 -13 132 38 60 28 110
50 111 50 2 0 5 -10 8 -22 9 -31 -65 -148 -321 -507 -79 -112 -90 -131 -74
-131 11 0 229 303 339 472 l70 107 12 -49 c7 -26 19 -56 27 -67 18 -21 18 -22
-12 90 -11 43 -16 116 -17 276 l-2 218 73 144 c40 79 72 149 72 156 0 24 53
73 124 112 52 28 91 60 131 106 32 36 64 65 71 65 31 0 29 -117 -3 -185 -9
-19 -42 -54 -73 -78 -47 -37 -61 -56 -89 -119 l-33 -76 40 -89 c51 -114 65
-187 60 -312 -2 -56 0 -101 4 -101 14 0 20 72 16 178 -5 103 -12 133 -64 248
-3 5 35 29 83 52 l88 42 5 -482 c4 -347 8 -489 17 -504 11 -19 7 -23 -43 -47
-103 -51 -155 -34 -207 69 -27 54 -106 147 -107 126 0 -7 17 -34 39 -60 21
-26 51 -71 67 -100 15 -29 40 -60 55 -69 l26 -16 -72 -111 c-106 -163 -196
-324 -184 -332 13 -7 12 -9 39 46 28 55 136 231 197 322 38 55 51 67 81 73 20
4 58 18 84 31 45 23 50 23 78 9 24 -13 85 -15 377 -15 383 0 392 1 437 63 20
27 21 41 21 310 l0 282 27 40 c36 53 44 88 24 108 -14 14 -12 18 19 42 68 51
82 123 30 147 l-25 11 29 18 c69 42 93 124 46 155 -20 13 -40 16 -90 11 -64
-6 -65 -6 -65 19 0 19 13 32 58 60 68 43 128 99 148 136 22 43 18 95 -11 123
-31 32 -56 31 -132 -5 l-63 -29 0 134 c0 73 -4 144 -9 157 -9 23 -2 28 109 91
64 37 126 67 136 66 10 0 34 -6 52 -13 l34 -12 -128 -79 c-116 -72 -155 -105
-125 -105 6 0 72 38 148 85 133 83 138 85 183 79 32 -4 56 -2 75 8 25 13 30
13 44 -1 9 -9 63 -29 119 -45 57 -16 100 -32 95 -35 -4 -4 -70 -31 -145 -61
-76 -30 -138 -61 -138 -67 0 -7 3 -13 7 -13 19 0 299 114 307 125 7 9 18 10
42 2 30 -9 40 -7 91 26 l58 35 47 154 c26 84 48 161 48 170 0 27 -34 43 -175
84 -71 21 -134 41 -138 45 -5 3 5 50 22 103 33 106 31 138 -11 156 -29 12
-411 126 -488 145 -8 2 -25 -1 -38 -6z m270 -84 c285 -84 272 -78 265 -119 -3
-18 -36 -137 -73 -265 -45 -154 -74 -236 -85 -241 -21 -12 -509 131 -523 153
-7 11 5 67 42 194 100 343 100 343 127 343 13 0 125 -29 247 -65z m-319 -27
c-14 -50 -18 -55 -29 -40 -11 16 -13 16 -32 -1 -17 -15 -21 -16 -31 -3 -7 8
-10 20 -6 26 7 11 107 81 111 77 2 -1 -5 -28 -13 -59z m-50 -125 c11 4 10 -10
-6 -64 -17 -60 -22 -66 -33 -51 -11 16 -13 16 -32 -1 -17 -16 -20 -16 -32 -2
-19 23 5 105 32 105 10 0 21 7 24 15 5 12 10 13 20 4 8 -6 20 -9 27 -6z m898
-280 c9 -9 -73 -299 -89 -315 -5 -5 -66 8 -158 35 -125 38 -149 48 -147 63 1
15 63 226 88 301 4 11 289 -67 306 -84z m-961 19 c-15 -58 -20 -65 -69 -98
-29 -20 -55 -33 -58 -30 -3 3 4 44 17 91 18 67 27 85 41 85 10 0 20 4 23 9 3
4 18 8 34 7 l28 -1 -16 -63z m187 -141 c109 -33 224 -67 256 -76 31 -9 55 -21
51 -26 -3 -5 -32 -23 -65 -39 l-59 -30 -245 72 c-135 39 -244 75 -243 80 2 6
96 75 105 77 2 1 92 -26 200 -58z m648 -214 c6 -2 -5 -12 -24 -22 -31 -16 -40
-16 -90 -4 -45 11 -50 14 -28 17 15 2 27 9 27 16 0 13 -41 36 -65 36 -23 0
-29 -22 -10 -37 26 -18 15 -17 -82 13 l-85 26 31 22 31 23 143 -43 c78 -24
147 -46 152 -47z m-991 -68 c55 -26 54 -7 57 -869 2 -625 0 -800 -10 -818 -26
-48 -56 -52 -406 -52 -354 0 -369 2 -393 55 -9 19 -12 136 -12 423 1 356 2
394 16 370 17 -33 43 -48 81 -48 42 0 60 19 66 68 6 50 -4 58 -58 48 -39 -8
-38 -26 1 -26 22 0 25 -4 22 -27 -4 -34 -37 -42 -74 -19 -18 13 -24 25 -24 55
0 50 27 75 83 76 47 1 54 15 15 29 -32 11 -97 -19 -115 -54 -10 -20 -11 -16
-15 36 -1 33 -3 204 -3 380 0 308 1 323 20 344 11 12 29 26 40 31 32 13 680
11 709 -2z m287 -300 c28 -53 -13 -119 -117 -190 l-75 -50 3 102 3 101 54 29
c65 35 115 38 132 8z m-1837 -147 c10 -56 16 -105 14 -108 -6 -5 -202 -43
-206 -40 -6 6 -41 210 -37 214 7 8 169 40 190 39 17 -2 23 -16 39 -105z m736
-160 l0 -107 -89 -41 c-50 -23 -92 -39 -95 -36 -28 27 37 164 100 211 25 19
53 45 62 58 10 12 18 23 20 23 1 0 2 -48 2 -108z m-704 -19 c4 -21 12 -68 19
-106 7 -37 10 -69 6 -71 -9 -6 -169 -36 -190 -36 -15 0 -21 19 -36 105 -10 58
-16 107 -14 109 7 5 152 34 181 35 24 1 28 -4 34 -36z m-223 -121 c11 -57 17
-105 15 -107 -6 -7 -201 -46 -205 -42 -7 8 -42 211 -37 216 8 8 165 39 189 37
17 -1 22 -15 38 -104z m1995 81 c4 -30 -53 -91 -106 -114 -24 -11 -46 -19 -48
-19 -2 0 -4 33 -4 74 0 50 4 76 13 80 6 2 41 4 77 3 58 -2 65 -4 68 -24z
m-2258 -16 c0 -1 9 -49 20 -107 11 -57 17 -107 12 -110 -14 -12 -195 -41 -202
-33 -11 12 -44 203 -36 210 9 9 206 48 206 40z m2208 -175 c3 -17 -9 -36 -41
-68 -24 -24 -49 -44 -56 -44 -7 0 -11 25 -11 71 l0 70 53 -3 c46 -3 52 -6 55
-26z m-1690 -8 c6 -2 12 -10 12 -19 0 -11 -10 -15 -35 -15 -47 0 -44 -16 4
-24 39 -6 40 -7 51 -62 7 -30 10 -57 8 -60 -8 -7 -201 -44 -206 -40 -6 6 -43
208 -39 212 18 18 156 23 205 8z m115 -10 c23 -4 37 -12 37 -22 0 -11 -7 -13
-31 -8 -17 3 -42 6 -55 6 -15 0 -24 6 -24 15 0 16 15 18 73 9z m-328 -114 c10
-55 16 -102 13 -105 -11 -11 -199 -42 -204 -34 -5 9 -44 203 -41 205 5 4 166
32 188 33 25 1 26 -2 44 -99z m-240 -45 c10 -58 16 -108 12 -111 -6 -6 -199
-45 -203 -41 -7 8 -43 211 -38 216 6 7 156 38 190 40 19 1 23 -9 39 -104z
m2075 3 c0 -13 -9 -34 -20 -48 l-20 -25 0 48 c0 40 3 47 20 47 14 0 20 -7 20
-22z"/>
<path d="M3306 3759 c-35 -28 -35 -70 0 -98 15 -12 35 -21 46 -21 25 0 68 44
68 70 0 26 -43 70 -68 70 -11 0 -31 -9 -46 -21z"/>
<path d="M3112 3664 c-18 -12 -22 -24 -20 -51 8 -93 128 -90 128 2 0 56 -59
83 -108 49z"/>
<path d="M2934 3578 c-27 -12 -46 -52 -37 -75 19 -54 76 -70 113 -33 52 52
-10 140 -76 108z"/>
<path d="M3462 3488 c-26 -26 -7 -78 28 -78 9 0 25 9 35 20 37 41 -24 97 -63
58z"/>
<path d="M3648 3439 c-36 -21 -16 -79 27 -79 42 0 59 44 29 74 -18 18 -32 20
-56 5z"/>
<path d="M3525 3370 c-37 -41 24 -97 63 -58 18 18 14 56 -7 68 -27 14 -35 13
-56 -10z"/>
<path d="M3412 3318 c-26 -26 -7 -78 28 -78 19 0 50 30 50 48 0 32 -54 54 -78
30z"/>
<path d="M3596 3264 c-30 -30 -13 -74 29 -74 42 0 59 44 29 74 -8 9 -22 16
-29 16 -7 0 -21 -7 -29 -16z"/>
<path d="M2944 3285 c-9 -22 16 -42 63 -51 36 -7 63 0 63 15 0 16 -44 41 -84
48 -28 4 -37 2 -42 -12z"/>
<path d="M2016 2468 c-9 -21 -16 -42 -16 -48 0 -23 -18 -8 -35 30 -10 22 -21
40 -25 40 -10 0 -20 -52 -20 -98 0 -45 8 -37 19 19 l8 44 18 -38 c22 -44 34
-43 50 2 12 36 25 32 25 -8 0 -14 5 -33 11 -41 13 -19 3 94 -11 119 -7 13 -12
9 -24 -21z"/>
<path d="M2100 2480 c-24 -24 -27 -82 -4 -104 38 -39 94 -1 94 64 0 58 -50 80
-90 40z m72 -25 c9 -19 7 -29 -6 -50 -23 -35 -60 -31 -64 7 -7 60 47 94 70 43z"/>
<path d="M2224 2492 c-12 -8 -4 -129 9 -124 4 1 16 2 27 2 22 0 45 35 33 53
-4 6 -6 20 -5 30 6 35 -34 60 -64 39z m46 -26 c0 -8 -7 -16 -15 -20 -10 -4
-15 1 -15 14 0 11 7 20 15 20 8 0 15 -6 15 -14z m6 -57 c3 -6 0 -15 -7 -20
-22 -14 -29 -11 -29 11 0 21 24 27 36 9z"/>
<path d="M2325 2491 c-3 -5 -1 -12 5 -16 14 -9 13 -78 -2 -93 -9 -9 -4 -12 22
-12 26 0 31 3 22 12 -15 15 -16 84 -2 93 15 9 2 25 -20 25 -10 0 -21 -4 -25
-9z"/>
<path d="M2400 2431 c0 -33 3 -62 8 -65 4 -2 23 -1 42 4 l35 8 -32 1 -33 1 0
55 c0 30 -4 55 -10 55 -6 0 -10 -26 -10 -59z"/>
<path d="M2500 2430 l0 -60 40 0 c22 0 40 5 40 10 0 6 -13 10 -30 10 -20 0
-30 5 -30 15 0 9 9 15 25 15 14 0 25 5 25 10 0 6 -11 10 -25 10 -18 0 -25 5
-25 19 0 15 8 21 33 24 28 3 26 4 -10 5 l-43 2 0 -60z"/>
<path d="M2111 2283 c-31 -62 -55 -153 -42 -166 7 -7 13 -2 21 17 5 15 10 32
10 37 0 5 20 9 45 9 42 0 45 -2 53 -32 12 -47 37 -51 29 -5 -3 22 -1 39 5 43
7 5 5 12 -7 20 -10 8 -30 35 -44 61 -14 26 -31 48 -38 50 -7 3 -21 -13 -32
-34z m48 -71 c-42 -7 -49 0 -33 38 l16 35 18 -35 c18 -34 18 -35 -1 -38z"/>
<path d="M2266 2258 c-11 -103 -11 -141 0 -145 8 -3 14 21 19 69 l7 72 35 -67
c18 -37 38 -65 43 -62 5 3 19 33 31 66 12 33 24 57 27 54 3 -3 10 -33 17 -67
11 -64 36 -93 34 -41 -1 55 -34 168 -48 168 -9 0 -25 -28 -40 -69 l-25 -69
-35 72 c-19 39 -41 71 -47 71 -8 0 -15 -21 -18 -52z"/>
<path d="M2508 2303 c-2 -5 -2 -48 0 -96 l3 -88 56 3 c34 2 58 8 61 15 3 10
-8 11 -42 7 l-46 -7 0 31 c0 28 3 31 38 34 36 3 48 22 14 24 -49 3 -52 5 -52
29 0 19 5 25 23 25 33 0 67 11 67 21 0 11 -117 12 -122 2z"/>
<path d="M4125 3033 c-121 -62 -135 -67 -200 -68 -56 -2 -82 -8 -131 -33 -58
-29 -255 -169 -268 -191 -4 -6 -43 -8 -110 -4 -114 6 -129 0 -102 -42 9 -14
14 -25 11 -25 -3 0 -71 -9 -153 -21 -138 -19 -175 -30 -159 -45 6 -7 324 33
339 42 5 3 8 3 8 0 0 -2 -16 -14 -35 -26 -53 -33 -46 -50 20 -50 54 0 54 0 45
-26 -15 -39 -13 -94 4 -94 15 0 61 52 113 130 29 42 38 47 129 78 203 69 355
159 368 219 5 23 33 45 141 115 123 80 156 109 123 107 -7 0 -71 -30 -143 -66z
m-110 -93 c-3 -5 -12 -10 -18 -10 -7 0 -6 4 3 10 19 12 23 12 15 0z m-47 -12
c24 -24 13 -56 -34 -97 -46 -41 -64 -49 -64 -32 0 5 -16 32 -35 61 l-34 51 32
14 c40 18 119 19 135 3z m-154 -70 c33 -44 42 -83 22 -91 -12 -5 -16 0 -16 23
0 16 -11 41 -25 58 -27 32 -31 42 -16 42 6 0 21 -15 35 -32z m-40 -19 c15 -18
26 -43 26 -60 0 -25 -6 -32 -42 -48 -75 -32 -88 -34 -88 -16 0 9 -9 30 -21 47
-12 16 -19 31 -17 34 13 12 104 74 110 74 3 0 18 -14 32 -31z m-140 -94 c33
-51 25 -59 -106 -95 -37 -10 -68 -15 -68 -10 0 12 133 130 146 130 7 0 19 -11
28 -25z"/>
<path d="M3206 3022 c-77 -31 -141 -63 -144 -69 -2 -7 2 -13 10 -13 26 1 302
116 306 128 7 22 -31 12 -172 -46z"/>
<path d="M3098 2553 c-104 -30 -158 -50 -158 -59 0 -18 1 -18 105 12 211 60
225 65 225 79 0 19 11 21 -172 -32z"/>
<path d="M3220 2490 c-94 -43 -146 -73 -148 -84 -4 -19 -18 -24 178 64 125 56
139 65 125 79 -6 5 -69 -19 -155 -59z"/>
<path d="M3375 2299 c-4 -6 -4 -26 0 -46 l6 -36 -36 6 c-27 4 -38 2 -42 -10
-5 -13 -27 -14 -174 -8 -147 6 -169 5 -169 -8 0 -12 28 -16 166 -22 127 -6
168 -5 174 5 6 9 14 8 34 -5 14 -10 26 -21 26 -26 0 -5 -64 -10 -142 -11 -176
-4 -195 -22 -27 -26 108 -2 117 -4 112 -21 -8 -31 23 -32 105 -3 l78 28 90
-28 c188 -59 319 -72 362 -36 14 12 35 13 112 7 151 -11 180 -11 180 4 0 10
-41 21 -137 37 -113 20 -141 28 -155 46 -36 44 -91 57 -262 60 l-159 4 -53 50
c-52 49 -77 60 -89 39z m105 -94 c-2 -16 -54 -7 -67 12 -7 9 -13 28 -13 41 0
25 0 24 41 -9 22 -19 40 -38 39 -44z m-79 -15 c10 0 19 -4 19 -10 0 -15 -34
-12 -56 6 -17 14 -17 15 -1 10 10 -3 27 -6 38 -6z m328 -6 c27 -6 31 -11 31
-39 0 -18 -8 -42 -17 -54 -17 -19 -21 -20 -68 -8 l-50 13 4 40 c1 21 5 42 8
47 5 9 49 9 92 1z m-116 -18 c3 -8 3 -24 0 -36 -7 -26 -25 -24 -118 11 -58 22
-59 23 -30 30 57 13 142 10 148 -5z m173 -83 c-4 -12 -11 -23 -17 -23 -7 0 -8
7 -4 18 4 9 10 37 14 62 l6 45 3 -39 c2 -22 1 -50 -2 -63z m95 71 c36 -18 51
-39 47 -66 -3 -21 -9 -23 -67 -26 -55 -3 -63 -1 -57 13 3 9 6 37 6 61 0 42 1
45 23 38 12 -3 34 -12 48 -20z m-431 -19 c0 -6 -38 -22 -83 -36 -25 -7 -27 -6
-17 6 7 8 23 15 36 15 13 0 24 5 24 10 0 6 9 10 20 10 11 0 20 -2 20 -5z"/>
<path d="M3027 2123 c-6 -12 140 -313 153 -313 19 0 10 23 -60 167 -68 137
-84 162 -93 146z"/>
<path d="M3042 1979 c3 -8 27 -60 53 -115 l47 -102 -39 -50 c-21 -28 -42 -51
-47 -51 -4 -1 -36 22 -71 49 -67 53 -75 57 -75 38 0 -7 29 -37 65 -66 l65 -53
-36 -71 c-64 -127 -94 -291 -75 -411 27 -161 91 -253 227 -322 74 -38 84 -40
164 -39 74 0 94 5 154 32 236 109 397 373 397 652 0 155 -36 244 -135 338 -82
78 -151 107 -251 107 -97 0 -157 -20 -252 -85 l-68 -47 -50 101 c-27 55 -56
102 -64 104 -9 3 -12 0 -9 -9z m564 -200 c10 -8 3 -26 -28 -75 -40 -64 -51
-71 -77 -55 -12 8 -13 16 -2 53 7 24 19 58 27 75 12 31 15 32 41 22 15 -5 33
-15 39 -20z m-256 -61 c0 -70 -1 -74 -30 -90 -33 -19 -31 -21 -59 50 l-21 53
47 29 c26 17 51 30 55 30 4 0 8 -33 8 -72z m384 -171 l1 -50 -54 -18 c-30 -11
-55 -18 -56 -16 -1 1 -6 19 -12 39 l-11 38 56 45 c65 51 74 47 76 -38z m-580
-30 c28 -22 28 -24 15 -60 -14 -41 -27 -44 -91 -24 l-37 12 26 57 c28 62 29
63 87 15z m311 24 c3 -5 -9 -31 -26 -58 -17 -26 -29 -41 -26 -32 3 10 11 35
18 58 12 40 22 50 34 32z m-106 -58 l0 -58 -19 45 c-17 41 -17 46 -2 58 9 6
17 12 19 12 2 0 3 -26 2 -57z m167 -52 c-4 -5 -27 -16 -54 -25 l-47 -16 45 39
c36 31 47 36 53 25 4 -8 6 -18 3 -23z m-230 -17 c19 -15 33 -29 30 -31 -4 -5
-86 16 -86 22 0 8 13 35 17 35 2 0 20 -12 39 -26z m213 -80 c2 -2 0 -13 -5
-24 -9 -19 -10 -19 -54 11 l-45 30 50 -7 c28 -3 52 -8 54 -10z m-239 -39 c-24
-25 -36 -31 -42 -22 -4 6 -8 15 -8 18 0 6 65 37 79 38 3 1 -10 -15 -29 -34z
m423 8 c9 -2 17 -9 17 -14 0 -14 -41 -109 -47 -109 -2 0 -24 13 -48 30 l-43
30 15 40 c16 39 18 40 52 34 20 -3 44 -8 54 -11z m-277 -101 c-21 -22 -26 -13
-32 54 l-5 59 26 -49 c24 -44 25 -50 11 -64z m-93 30 c-16 -51 -26 -62 -38
-43 -5 9 46 104 52 97 1 -1 -5 -25 -14 -54z m-178 -31 c6 -30 3 -37 -41 -82
-27 -27 -52 -49 -56 -49 -8 0 -38 94 -38 120 0 21 112 72 121 56 4 -6 10 -26
14 -45z m360 -131 c14 -27 25 -52 25 -55 0 -3 -28 -24 -62 -46 l-63 -40 -7 43
c-14 89 -11 101 30 124 20 12 40 22 44 23 4 1 19 -21 33 -49z m-262 9 l25 -11
-25 -74 c-14 -41 -29 -74 -34 -74 -14 0 -69 29 -69 37 0 7 73 133 77 133 1 0
13 -5 26 -11z"/>
<path d="M662 1788 c-70 -14 -105 -25 -111 -37 -11 -20 21 -186 43 -230 l15
-28 96 19 c53 11 102 17 109 15 7 -3 20 -49 31 -107 19 -110 16 -120 -32 -120
-28 0 -53 -10 -53 -21 0 -22 114 2 124 26 3 8 -5 70 -18 137 -13 68 -32 172
-42 231 -15 97 -31 139 -52 136 -4 0 -53 -10 -110 -21z m122 -25 c14 -49 38
-194 33 -199 -9 -9 -190 -45 -202 -40 -13 5 -50 204 -40 214 6 7 152 38 187
41 9 0 19 -7 22 -16z"/>
</g>
</svg>
